<svg width="24" height="25" viewBox="0 0 24 25" fill="none" xmlns="http://www.w3.org/2000/svg">
<g filter="url(#filter0_b_540_2540)">
<circle cx="12" cy="12.5" r="12" fill="url(#paint0_linear_540_2540)" fill-opacity="0.3"/>
<circle cx="12" cy="12.5" r="11.5" stroke="url(#paint1_linear_540_2540)"/>
</g>
<mask id="mask0_540_2540" style="mask-type:alpha" maskUnits="userSpaceOnUse" x="3" y="3" width="18" height="19">
<rect x="3" y="3.5" width="18" height="18" fill="#D9D9D9"/>
</mask>
<g mask="url(#mask0_540_2540)">
<path d="M12 18.4424C11.6906 18.4424 11.4258 18.3322 11.2056 18.112C10.9852 17.8916 10.875 17.6267 10.875 17.3174C10.875 17.008 10.9852 16.7432 11.2056 16.5229C11.4258 16.3025 11.6906 16.1924 12 16.1924C12.3094 16.1924 12.5742 16.3025 12.7944 16.5229C13.0148 16.7432 13.125 17.008 13.125 17.3174C13.125 17.6267 13.0148 17.8916 12.7944 18.112C12.5742 18.3322 12.3094 18.4424 12 18.4424ZM10.9761 14.7645V6.18286H13.0239V14.7645H10.9761Z" fill="#6CDFF0"/>
</g>
<defs>
<filter id="filter0_b_540_2540" x="-15" y="-14.5" width="54" height="54" filterUnits="userSpaceOnUse" color-interpolation-filters="sRGB">
<feFlood flood-opacity="0" result="BackgroundImageFix"/>
<feGaussianBlur in="BackgroundImageFix" stdDeviation="7.5"/>
<feComposite in2="SourceAlpha" operator="in" result="effect1_backgroundBlur_540_2540"/>
<feBlend mode="normal" in="SourceGraphic" in2="effect1_backgroundBlur_540_2540" result="shape"/>
</filter>
<linearGradient id="paint0_linear_540_2540" x1="16.5" y1="18" x2="5" y2="2" gradientUnits="userSpaceOnUse">
<stop stop-color="white"/>
<stop offset="1" stop-color="#787878"/>
</linearGradient>
<linearGradient id="paint1_linear_540_2540" x1="3.5" y1="2" x2="20" y2="22.5" gradientUnits="userSpaceOnUse">
<stop stop-color="#E7E7E7"/>
<stop offset="1" stop-color="#CDCDCD"/>
</linearGradient>
</defs>
</svg>
