<svg width="31" height="31" viewBox="0 0 31 31" fill="none" xmlns="http://www.w3.org/2000/svg">
<g filter="url(#filter0_b_431_441)">
<g filter="url(#filter1_b_431_441)">
<circle cx="15.5" cy="15.5" r="15.5" fill="url(#paint0_linear_431_441)" fill-opacity="0.3"/>
<circle cx="15.5" cy="15.5" r="15" stroke="url(#paint1_linear_431_441)"/>
</g>
<mask id="mask0_431_441" style="mask-type:alpha" maskUnits="userSpaceOnUse" x="9" y="10" width="14" height="14">
<rect x="9.66667" y="10.6667" width="12.6667" height="12.6667" fill="#D9D9D9" stroke="#E7E7E7" stroke-width="1.33333"/>
</mask>
<g mask="url(#mask0_431_441)">
<mask id="path-4-inside-1_431_441" fill="white">
<path d="M15.9997 21.8572L15.3558 21.2784C14.3888 20.4011 13.5892 19.6473 12.9569 19.0169C12.3245 18.3864 11.8234 17.8253 11.4536 17.3336C11.0838 16.8419 10.8254 16.3934 10.6785 15.988C10.5315 15.5826 10.458 15.1713 10.458 14.7541C10.458 13.9262 10.7371 13.2331 11.2954 12.6748C11.8537 12.1165 12.5468 11.8374 13.3747 11.8374C13.8839 11.8374 14.3652 11.9565 14.8184 12.1947C15.2717 12.4329 15.6654 12.7745 15.9997 13.2195C16.3339 12.7745 16.7277 12.4329 17.1809 12.1947C17.6342 11.9565 18.1154 11.8374 18.6247 11.8374C19.4525 11.8374 20.1456 12.1165 20.704 12.6748C21.2622 13.2331 21.5413 13.9262 21.5413 14.7541C21.5413 15.1713 21.4678 15.5826 21.3208 15.988C21.1739 16.3934 20.9156 16.8419 20.5457 17.3336C20.1759 17.8253 19.6757 18.3864 19.0453 19.0169C18.4149 19.6473 17.6143 20.4011 16.6435 21.2784L15.9997 21.8572ZM15.9997 20.6749C16.933 19.8351 17.7011 19.1153 18.3038 18.5154C18.9066 17.9156 19.383 17.3946 19.733 16.9522C20.083 16.5099 20.3261 16.117 20.4622 15.7737C20.5983 15.4305 20.6663 15.0907 20.6663 14.7541C20.6663 14.1707 20.4719 13.6846 20.083 13.2957C19.6941 12.9068 19.208 12.7124 18.6247 12.7124C18.164 12.7124 17.7383 12.8431 17.3475 13.1044C16.9567 13.3658 16.6473 13.7295 16.4192 14.1954H15.5801C15.3482 13.7257 15.0379 13.3611 14.649 13.1016C14.2601 12.8421 13.8353 12.7124 13.3747 12.7124C12.795 12.7124 12.3098 12.9068 11.9191 13.2957C11.5284 13.6846 11.333 14.1707 11.333 14.7541C11.333 15.0907 11.4011 15.4305 11.5372 15.7737C11.6733 16.117 11.9163 16.5099 12.2663 16.9522C12.6163 17.3946 13.0927 17.9147 13.6955 18.5126C14.2983 19.1105 15.0663 19.8313 15.9997 20.6749Z"/>
</mask>
<path d="M15.9997 21.8572L15.3558 21.2784C14.3888 20.4011 13.5892 19.6473 12.9569 19.0169C12.3245 18.3864 11.8234 17.8253 11.4536 17.3336C11.0838 16.8419 10.8254 16.3934 10.6785 15.988C10.5315 15.5826 10.458 15.1713 10.458 14.7541C10.458 13.9262 10.7371 13.2331 11.2954 12.6748C11.8537 12.1165 12.5468 11.8374 13.3747 11.8374C13.8839 11.8374 14.3652 11.9565 14.8184 12.1947C15.2717 12.4329 15.6654 12.7745 15.9997 13.2195C16.3339 12.7745 16.7277 12.4329 17.1809 12.1947C17.6342 11.9565 18.1154 11.8374 18.6247 11.8374C19.4525 11.8374 20.1456 12.1165 20.704 12.6748C21.2622 13.2331 21.5413 13.9262 21.5413 14.7541C21.5413 15.1713 21.4678 15.5826 21.3208 15.988C21.1739 16.3934 20.9156 16.8419 20.5457 17.3336C20.1759 17.8253 19.6757 18.3864 19.0453 19.0169C18.4149 19.6473 17.6143 20.4011 16.6435 21.2784L15.9997 21.8572ZM15.9997 20.6749C16.933 19.8351 17.7011 19.1153 18.3038 18.5154C18.9066 17.9156 19.383 17.3946 19.733 16.9522C20.083 16.5099 20.3261 16.117 20.4622 15.7737C20.5983 15.4305 20.6663 15.0907 20.6663 14.7541C20.6663 14.1707 20.4719 13.6846 20.083 13.2957C19.6941 12.9068 19.208 12.7124 18.6247 12.7124C18.164 12.7124 17.7383 12.8431 17.3475 13.1044C16.9567 13.3658 16.6473 13.7295 16.4192 14.1954H15.5801C15.3482 13.7257 15.0379 13.3611 14.649 13.1016C14.2601 12.8421 13.8353 12.7124 13.3747 12.7124C12.795 12.7124 12.3098 12.9068 11.9191 13.2957C11.5284 13.6846 11.333 14.1707 11.333 14.7541C11.333 15.0907 11.4011 15.4305 11.5372 15.7737C11.6733 16.117 11.9163 16.5099 12.2663 16.9522C12.6163 17.3946 13.0927 17.9147 13.6955 18.5126C14.2983 19.1105 15.0663 19.8313 15.9997 20.6749Z" fill="#36DE8D" stroke="#E7E7E7" stroke-width="0.0666667" mask="url(#path-4-inside-1_431_441)"/>
</g>
</g>
<defs>
<filter id="filter0_b_431_441" x="-15" y="-15" width="61" height="61" filterUnits="userSpaceOnUse" color-interpolation-filters="sRGB">
<feFlood flood-opacity="0" result="BackgroundImageFix"/>
<feGaussianBlur in="BackgroundImageFix" stdDeviation="7.5"/>
<feComposite in2="SourceAlpha" operator="in" result="effect1_backgroundBlur_431_441"/>
<feBlend mode="normal" in="SourceGraphic" in2="effect1_backgroundBlur_431_441" result="shape"/>
</filter>
<filter id="filter1_b_431_441" x="-15" y="-15" width="61" height="61" filterUnits="userSpaceOnUse" color-interpolation-filters="sRGB">
<feFlood flood-opacity="0" result="BackgroundImageFix"/>
<feGaussianBlur in="BackgroundImageFix" stdDeviation="7.5"/>
<feComposite in2="SourceAlpha" operator="in" result="effect1_backgroundBlur_431_441"/>
<feBlend mode="normal" in="SourceGraphic" in2="effect1_backgroundBlur_431_441" result="shape"/>
</filter>
<linearGradient id="paint0_linear_431_441" x1="21.3125" y1="22.6042" x2="6.45833" y2="1.9375" gradientUnits="userSpaceOnUse">
<stop stop-color="white"/>
<stop offset="1" stop-color="#787878"/>
</linearGradient>
<linearGradient id="paint1_linear_431_441" x1="4.52083" y1="1.9375" x2="25.8333" y2="28.4167" gradientUnits="userSpaceOnUse">
<stop stop-color="#E7E7E7"/>
<stop offset="1" stop-color="#CDCDCD"/>
</linearGradient>
</defs>
</svg>
