<svg width="31" height="31" fill="none" xmlns="http://www.w3.org/2000/svg"><g filter="url(#a)"><g filter="url(#b)"><circle cx="15.5" cy="15.5" r="15.5" fill="url(#c)" fill-opacity=".3"/><circle cx="15.5" cy="15.5" r="15" stroke="url(#d)"/></g><mask id="e" style="mask-type:alpha" maskUnits="userSpaceOnUse" x="9" y="10" width="14" height="14"><path fill="#D9D9D9" stroke="#E7E7E7" stroke-width="1.333" d="M9.667 10.667h12.667v12.667H9.667z"/></mask><g mask="url(#e)"><mask id="f" fill="#fff"><path d="m16 21.857-.644-.579a71.92 71.92 0 0 1-2.4-2.261c-.631-.63-1.133-1.192-1.502-1.683-.37-.492-.629-.94-.776-1.346a3.595 3.595 0 0 1-.22-1.234c0-.828.28-1.52.837-2.08.559-.557 1.252-.837 2.08-.837.509 0 .99.12 1.443.358.454.238.847.58 1.182 1.024a3.523 3.523 0 0 1 1.18-1.024 3.06 3.06 0 0 1 1.445-.358c.828 0 1.52.28 2.079.838.558.558.837 1.251.837 2.08 0 .416-.073.828-.22 1.233-.147.405-.405.854-.775 1.346-.37.491-.87 1.052-1.5 1.683-.631.63-1.432 1.384-2.402 2.261l-.644.58zm0-1.182c.933-.84 1.701-1.56 2.304-2.16.603-.6 1.079-1.12 1.429-1.563.35-.442.593-.835.73-1.178a2.75 2.75 0 0 0 .203-1.02c0-.583-.194-1.07-.583-1.458-.389-.39-.875-.584-1.458-.584-.461 0-.887.131-1.277.392-.391.262-.7.626-.929 1.091h-.839a2.734 2.734 0 0 0-.931-1.093 2.25 2.25 0 0 0-1.274-.39c-.58 0-1.065.195-1.456.584-.39.389-.586.875-.586 1.458 0 .337.068.677.204 1.02.136.343.38.736.73 1.178.35.443.826.963 1.428 1.56.603.598 1.371 1.32 2.305 2.163z"/></mask><path d="m16 21.857-.644-.579a71.92 71.92 0 0 1-2.4-2.261c-.631-.63-1.133-1.192-1.502-1.683-.37-.492-.629-.94-.776-1.346a3.595 3.595 0 0 1-.22-1.234c0-.828.28-1.52.837-2.08.559-.557 1.252-.837 2.08-.837.509 0 .99.12 1.443.358.454.238.847.58 1.182 1.024a3.523 3.523 0 0 1 1.18-1.024 3.06 3.06 0 0 1 1.445-.358c.828 0 1.52.28 2.079.838.558.558.837 1.251.837 2.08 0 .416-.073.828-.22 1.233-.147.405-.405.854-.775 1.346-.37.491-.87 1.052-1.5 1.683-.631.63-1.432 1.384-2.402 2.261l-.644.58zm0-1.182c.933-.84 1.701-1.56 2.304-2.16.603-.6 1.079-1.12 1.429-1.563.35-.442.593-.835.73-1.178a2.75 2.75 0 0 0 .203-1.02c0-.583-.194-1.07-.583-1.458-.389-.39-.875-.584-1.458-.584-.461 0-.887.131-1.277.392-.391.262-.7.626-.929 1.091h-.839a2.734 2.734 0 0 0-.931-1.093 2.25 2.25 0 0 0-1.274-.39c-.58 0-1.065.195-1.456.584-.39.389-.586.875-.586 1.458 0 .337.068.677.204 1.02.136.343.38.736.73 1.178.35.443.826.963 1.428 1.56.603.598 1.371 1.32 2.305 2.163z" fill="#36DE8D" stroke="#E7E7E7" stroke-width=".067" mask="url(#f)"/></g></g><defs><linearGradient id="c" x1="21.313" y1="22.604" x2="6.458" y2="1.938" gradientUnits="userSpaceOnUse"><stop stop-color="#fff"/><stop offset="1" stop-color="#787878"/></linearGradient><linearGradient id="d" x1="4.521" y1="1.938" x2="25.833" y2="28.417" gradientUnits="userSpaceOnUse"><stop stop-color="#E7E7E7"/><stop offset="1" stop-color="#CDCDCD"/></linearGradient><filter id="a" x="-15" y="-15" width="61" height="61" filterUnits="userSpaceOnUse" color-interpolation-filters="sRGB"><feFlood flood-opacity="0" result="BackgroundImageFix"/><feGaussianBlur in="BackgroundImageFix" stdDeviation="7.5"/><feComposite in2="SourceAlpha" operator="in" result="effect1_backgroundBlur_431_441"/><feBlend in="SourceGraphic" in2="effect1_backgroundBlur_431_441" result="shape"/></filter><filter id="b" x="-15" y="-15" width="61" height="61" filterUnits="userSpaceOnUse" color-interpolation-filters="sRGB"><feFlood flood-opacity="0" result="BackgroundImageFix"/><feGaussianBlur in="BackgroundImageFix" stdDeviation="7.5"/><feComposite in2="SourceAlpha" operator="in" result="effect1_backgroundBlur_431_441"/><feBlend in="SourceGraphic" in2="effect1_backgroundBlur_431_441" result="shape"/></filter></defs></svg>