<svg width="31" height="31" viewBox="0 0 31 31" fill="none" xmlns="http://www.w3.org/2000/svg">
<g filter="url(#filter0_b_540_2535)">
<g filter="url(#filter1_b_540_2535)">
<circle cx="15.5" cy="15.5" r="15.5" fill="url(#paint0_linear_540_2535)" fill-opacity="0.3"/>
<circle cx="15.5" cy="15.5" r="15" stroke="url(#paint1_linear_540_2535)"/>
</g>
<mask id="mask0_540_2535" style="mask-type:alpha" maskUnits="userSpaceOnUse" x="9" y="10" width="14" height="14">
<rect x="9.66667" y="10.6667" width="12.6667" height="12.6667" fill="#D9D9D9" stroke="#E7E7E7" stroke-width="1.33333"/>
</mask>
<g mask="url(#mask0_540_2535)">
<path d="M21.3208 15.988L21.3052 15.9823C21.4515 15.5787 21.5247 15.1693 21.5247 14.7541C21.5247 13.9304 21.2471 13.2416 20.6922 12.6866C20.1371 12.1316 19.4483 11.8541 18.6247 11.8541C18.1181 11.8541 17.6396 11.9725 17.1887 12.2094C16.7378 12.4464 16.3459 12.7863 16.013 13.2295L15.9997 13.2472L15.9863 13.2295C15.6535 12.7863 15.2615 12.4464 14.8107 12.2094C14.3598 11.9725 13.8812 11.8541 13.3747 11.8541C12.551 11.8541 11.8622 12.1316 11.3072 12.6866C10.7522 13.2416 10.4747 13.9304 10.4747 14.7541C10.4747 15.1693 10.5478 15.5787 10.6942 15.9823C10.8403 16.3856 11.0977 16.8327 11.4669 17.3236C11.8361 17.8145 12.3366 18.375 12.9686 19.0051C13.6007 19.6353 14.4002 20.3889 15.367 21.266L15.9997 21.8348L16.6324 21.266L21.3208 15.988ZM21.3208 15.988L21.3052 15.9823C21.159 16.3856 20.9016 16.8327 20.5324 17.3236M21.3208 15.988L20.5324 17.3236M20.5324 17.3236C20.1632 17.8145 19.6636 18.375 19.0335 19.0051M20.5324 17.3236L19.0335 19.0051M19.0335 19.0051C18.4034 19.6353 17.603 20.3889 16.6324 21.266L19.0335 19.0051ZM15.9885 20.6873L15.9996 20.6973L16.0108 20.6873C16.9443 19.8474 17.7126 19.1273 18.3156 18.5272C18.9186 17.9272 19.3955 17.4056 19.7461 16.9626C20.0966 16.5195 20.3407 16.1253 20.4777 15.7799C20.6145 15.4349 20.683 15.093 20.683 14.7541C20.683 14.1666 20.487 13.6762 20.0948 13.284C19.7026 12.8917 19.2121 12.6957 18.6247 12.6957C18.1607 12.6957 17.7317 12.8274 17.3382 13.0905C16.9474 13.352 16.6377 13.7149 16.4089 14.1787H15.5905C15.3579 13.7112 15.0473 13.3474 14.6582 13.0878C14.2666 12.8265 13.8387 12.6957 13.3747 12.6957C12.7909 12.6957 12.3014 12.8918 11.9074 13.2839C11.5133 13.6761 11.3163 14.1666 11.3163 14.7541C11.3163 15.093 11.3849 15.4349 11.5217 15.7799C11.6586 16.1253 11.9027 16.5195 12.2533 16.9626C12.6038 17.4056 13.0807 17.9263 13.6838 18.5245C14.2868 19.1226 15.0551 19.8436 15.9885 20.6873Z" fill="#36DE8D" stroke="#E7E7E7" stroke-width="0.0333333"/>
</g>
</g>
<defs>
<filter id="filter0_b_540_2535" x="-15" y="-15" width="61" height="61" filterUnits="userSpaceOnUse" color-interpolation-filters="sRGB">
<feFlood flood-opacity="0" result="BackgroundImageFix"/>
<feGaussianBlur in="BackgroundImageFix" stdDeviation="7.5"/>
<feComposite in2="SourceAlpha" operator="in" result="effect1_backgroundBlur_540_2535"/>
<feBlend mode="normal" in="SourceGraphic" in2="effect1_backgroundBlur_540_2535" result="shape"/>
</filter>
<filter id="filter1_b_540_2535" x="-15" y="-15" width="61" height="61" filterUnits="userSpaceOnUse" color-interpolation-filters="sRGB">
<feFlood flood-opacity="0" result="BackgroundImageFix"/>
<feGaussianBlur in="BackgroundImageFix" stdDeviation="7.5"/>
<feComposite in2="SourceAlpha" operator="in" result="effect1_backgroundBlur_540_2535"/>
<feBlend mode="normal" in="SourceGraphic" in2="effect1_backgroundBlur_540_2535" result="shape"/>
</filter>
<linearGradient id="paint0_linear_540_2535" x1="21.3125" y1="22.6042" x2="6.45833" y2="1.9375" gradientUnits="userSpaceOnUse">
<stop stop-color="white"/>
<stop offset="1" stop-color="#787878"/>
</linearGradient>
<linearGradient id="paint1_linear_540_2535" x1="4.52083" y1="1.9375" x2="25.8333" y2="28.4167" gradientUnits="userSpaceOnUse">
<stop stop-color="#E7E7E7"/>
<stop offset="1" stop-color="#CDCDCD"/>
</linearGradient>
</defs>
</svg>
