<svg width="24" height="25" viewBox="0 0 24 25" fill="none" xmlns="http://www.w3.org/2000/svg">
<g filter="url(#filter0_b_818_4922)">
<rect y="0.5" width="24" height="24" rx="12" fill="#D9D9D9"/>
<rect y="0.5" width="24" height="24" rx="12" fill="url(#paint0_linear_818_4922)" fill-opacity="0.3"/>
<rect x="0.5" y="1" width="23" height="23" rx="11.5" stroke="url(#paint1_linear_818_4922)"/>
<path d="M11.9785 13.5626C11.6888 13.5626 11.4393 13.4579 11.23 13.2486C11.0207 13.0393 10.916 12.7898 10.916 12.5001C10.916 12.2104 11.0207 11.9609 11.23 11.7516C11.4393 11.5422 11.6888 11.4376 11.9785 11.4376C12.2682 11.4376 12.5177 11.5422 12.727 11.7516C12.9364 11.9609 13.041 12.2104 13.041 12.5001C13.041 12.7898 12.9364 13.0393 12.727 13.2486C12.5177 13.4579 12.2682 13.5626 11.9785 13.5626ZM11.9785 18.5209C10.4374 18.5209 9.09884 18.0149 7.96279 17.0028C6.82674 15.9907 6.17248 14.7259 6 13.2084H7.08428C7.26314 14.4317 7.81457 15.4459 8.73859 16.2509C9.66261 17.0559 10.7426 17.4584 11.9785 17.4584C13.3598 17.4584 14.5315 16.9773 15.4936 16.0152C16.4558 15.053 16.9368 13.8813 16.9368 12.5001C16.9368 11.1188 16.4558 9.94713 15.4936 8.98498C14.5315 8.02282 13.3598 7.54175 11.9785 7.54175C11.2048 7.54175 10.4797 7.71364 9.80322 8.05741C9.12664 8.40107 8.54404 8.87395 8.05541 9.47603H9.90805V10.5385H6.31184V6.94232H7.37434V8.62054C7.94916 7.94219 8.63754 7.41572 9.43949 7.04113C10.2413 6.66654 11.0877 6.47925 11.9785 6.47925C12.8143 6.47925 13.5972 6.63727 14.3272 6.9533C15.0571 7.26934 15.6936 7.69888 16.2367 8.24194C16.7797 8.78499 17.2093 9.42143 17.5253 10.1512C17.8413 10.8812 17.9993 11.664 17.9993 12.4997C17.9993 13.3354 17.8413 14.1183 17.5253 14.8484C17.2093 15.5786 16.7797 16.2152 16.2367 16.7582C15.6936 17.3013 15.0571 17.7308 14.3272 18.0469C13.5972 18.3629 12.8143 18.5209 11.9785 18.5209Z" fill="#CBC825"/>
</g>
<defs>
<filter id="filter0_b_818_4922" x="-15" y="-14.5" width="54" height="54" filterUnits="userSpaceOnUse" color-interpolation-filters="sRGB">
<feFlood flood-opacity="0" result="BackgroundImageFix"/>
<feGaussianBlur in="BackgroundImageFix" stdDeviation="7.5"/>
<feComposite in2="SourceAlpha" operator="in" result="effect1_backgroundBlur_818_4922"/>
<feBlend mode="normal" in="SourceGraphic" in2="effect1_backgroundBlur_818_4922" result="shape"/>
</filter>
<linearGradient id="paint0_linear_818_4922" x1="16.5" y1="18" x2="5" y2="2" gradientUnits="userSpaceOnUse">
<stop stop-color="white"/>
<stop offset="1" stop-color="#787878"/>
</linearGradient>
<linearGradient id="paint1_linear_818_4922" x1="3.5" y1="2" x2="20" y2="22.5" gradientUnits="userSpaceOnUse">
<stop stop-color="#E7E7E7"/>
<stop offset="1" stop-color="#CDCDCD"/>
</linearGradient>
</defs>
</svg>
