<svg width="24" height="25" viewBox="0 0 24 25" fill="none" xmlns="http://www.w3.org/2000/svg">
<g filter="url(#filter0_b_431_479)">
<circle cx="12" cy="12.5" r="12" fill="white" fill-opacity="0.2"/>
<circle cx="12" cy="12.5" r="11.5" stroke="white"/>
</g>
<mask id="mask0_431_479" style="mask-type:alpha" maskUnits="userSpaceOnUse" x="3" y="3" width="19" height="20">
<rect width="19" height="19" transform="matrix(-1 0 0 1 22 3.5)" fill="#D9D9D9"/>
</mask>
<g mask="url(#mask0_431_479)">
<path d="M12.4697 18.9375C14.1273 18.9375 15.5313 18.3624 16.6816 17.2123C17.832 16.0621 18.4072 14.6584 18.4072 13.0012C18.4072 11.344 17.832 9.93988 16.6816 8.78893C15.5313 7.63798 14.1273 7.0625 12.4697 7.0625C11.5441 7.0625 10.6682 7.26827 9.84199 7.6798C9.01588 8.09147 8.32878 8.67229 7.78068 9.42226V7.0625H6.59318V11.9037H11.4344V10.7164H8.30734C8.72455 9.95208 9.30312 9.34995 10.0431 8.91005C10.7829 8.47002 11.5918 8.25 12.4697 8.25C13.7892 8.25 14.9107 8.71181 15.8343 9.63542C16.7579 10.559 17.2197 11.6806 17.2197 13C17.2197 14.3194 16.7579 15.441 15.8343 16.3646C14.9107 17.2882 13.7892 17.75 12.4697 17.75C11.4538 17.75 10.5367 17.4597 9.71868 16.8792C8.90063 16.2986 8.32667 15.5333 7.99681 14.5833H6.74538C7.10467 15.8753 7.81235 16.924 8.86843 17.7294C9.92452 18.5348 11.1249 18.9375 12.4697 18.9375Z" fill="#CBC825"/>
</g>
<defs>
<filter id="filter0_b_431_479" x="-15" y="-14.5" width="54" height="54" filterUnits="userSpaceOnUse" color-interpolation-filters="sRGB">
<feFlood flood-opacity="0" result="BackgroundImageFix"/>
<feGaussianBlur in="BackgroundImageFix" stdDeviation="7.5"/>
<feComposite in2="SourceAlpha" operator="in" result="effect1_backgroundBlur_431_479"/>
<feBlend mode="normal" in="SourceGraphic" in2="effect1_backgroundBlur_431_479" result="shape"/>
</filter>
</defs>
</svg>
