<svg width="24" height="25" fill="none" xmlns="http://www.w3.org/2000/svg"><g filter="url(#a)"><rect y=".5" width="24" height="24" rx="12" fill="#D9D9D9"/><rect y=".5" width="24" height="24" rx="12" fill="url(#b)" fill-opacity=".3"/><rect x=".5" y="1" width="23" height="23" rx="11.5" stroke="url(#c)"/><path d="M11.979 13.563c-.29 0-.54-.105-.749-.314a1.022 1.022 0 0 1-.314-.749c0-.29.105-.54.314-.748.21-.21.459-.314.748-.314.29 0 .54.104.749.314.21.209.314.458.314.748s-.105.54-.314.749c-.21.209-.459.314-.748.314zm0 4.958c-1.542 0-2.88-.506-4.016-1.518C6.827 15.99 6.173 14.726 6 13.208h1.084c.18 1.224.73 2.238 1.655 3.043.924.805 2.004 1.207 3.24 1.207 1.38 0 2.553-.48 3.515-1.443.962-.962 1.443-2.134 1.443-3.515 0-1.381-.481-2.553-1.443-3.515-.963-.962-2.134-1.443-3.515-1.443-.774 0-1.5.172-2.176.515a5.353 5.353 0 0 0-1.748 1.419h1.853v1.063H6.312V6.942h1.062v1.679A6.012 6.012 0 0 1 9.44 7.04a5.927 5.927 0 0 1 2.54-.562c.835 0 1.618.158 2.348.474.73.316 1.367.746 1.91 1.289.543.543.972 1.18 1.288 1.91.316.73.474 1.512.474 2.348 0 .835-.158 1.618-.474 2.348a6.095 6.095 0 0 1-1.288 1.91 6.099 6.099 0 0 1-1.91 1.289 5.848 5.848 0 0 1-2.348.474z" fill="#CBC825"/></g><defs><linearGradient id="b" x1="16.5" y1="18" x2="5" y2="2" gradientUnits="userSpaceOnUse"><stop stop-color="#fff"/><stop offset="1" stop-color="#787878"/></linearGradient><linearGradient id="c" x1="3.5" y1="2" x2="20" y2="22.5" gradientUnits="userSpaceOnUse"><stop stop-color="#E7E7E7"/><stop offset="1" stop-color="#CDCDCD"/></linearGradient><filter id="a" x="-15" y="-14.5" width="54" height="54" filterUnits="userSpaceOnUse" color-interpolation-filters="sRGB"><feFlood flood-opacity="0" result="BackgroundImageFix"/><feGaussianBlur in="BackgroundImageFix" stdDeviation="7.5"/><feComposite in2="SourceAlpha" operator="in" result="effect1_backgroundBlur_818_4922"/><feBlend in="SourceGraphic" in2="effect1_backgroundBlur_818_4922" result="shape"/></filter></defs></svg>