<svg width="24" height="25" fill="none" xmlns="http://www.w3.org/2000/svg"><g filter="url(#a)"><circle cx="12" cy="12.5" r="12" fill="url(#b)" fill-opacity=".3"/><circle cx="12" cy="12.5" r="11.5" stroke="url(#c)"/></g><mask id="d" style="mask-type:alpha" maskUnits="userSpaceOnUse" x="5" y="5" width="14" height="15"><path fill="#D9D9D9" stroke="#E7E7E7" d="M5.5 6h13v13h-13z"/></mask><g mask="url(#d)"><mask id="e" fill="#fff"><path d="m9.536 10.077 1.577-2.07a.963.963 0 0 1 .373-.308c.144-.066.296-.099.456-.099.16 0 .312.033.456.099a.963.963 0 0 1 .373.308l1.577 2.07 2.412.814c.23.075.41.205.54.392a1.1 1.1 0 0 1 .148.933.963.963 0 0 1-.152.299l-1.57 2.18.058 2.313c.01.307-.091.566-.304.776a1.02 1.02 0 0 1-.741.316c-.009 0-.106-.013-.293-.038l-2.504-.718-2.504.718a.478.478 0 0 1-.15.034c-.052.003-.1.004-.143.004-.285 0-.532-.105-.743-.316-.211-.21-.312-.47-.302-.776l.058-2.328-1.561-2.165a.97.97 0 0 1-.15-.3 1.073 1.073 0 0 1 .683-1.33l2.406-.808zm.54.754-2.666.888a.176.176 0 0 0-.115.115.16.16 0 0 0 .025.16L9.04 14.42l-.064 2.606a.167.167 0 0 0 .067.15.17.17 0 0 0 .163.029l2.737-.769 2.737.784a.17.17 0 0 0 .163-.029.167.167 0 0 0 .067-.151l-.064-2.62 1.719-2.397a.16.16 0 0 0 .025-.16.176.176 0 0 0-.115-.114l-2.666-.918-1.726-2.277a.161.161 0 0 0-.14-.073.161.161 0 0 0-.14.073l-1.725 2.277z"/></mask><path d="m9.536 10.077 1.577-2.07a.963.963 0 0 1 .373-.308c.144-.066.296-.099.456-.099.16 0 .312.033.456.099a.963.963 0 0 1 .373.308l1.577 2.07 2.412.814c.23.075.41.205.54.392a1.1 1.1 0 0 1 .148.933.963.963 0 0 1-.152.299l-1.57 2.18.058 2.313c.01.307-.091.566-.304.776a1.02 1.02 0 0 1-.741.316c-.009 0-.106-.013-.293-.038l-2.504-.718-2.504.718a.478.478 0 0 1-.15.034c-.052.003-.1.004-.143.004-.285 0-.532-.105-.743-.316-.211-.21-.312-.47-.302-.776l.058-2.328-1.561-2.165a.97.97 0 0 1-.15-.3 1.073 1.073 0 0 1 .683-1.33l2.406-.808zm.54.754-2.666.888a.176.176 0 0 0-.115.115.16.16 0 0 0 .025.16L9.04 14.42l-.064 2.606a.167.167 0 0 0 .067.15.17.17 0 0 0 .163.029l2.737-.769 2.737.784a.17.17 0 0 0 .163-.029.167.167 0 0 0 .067-.151l-.064-2.62 1.719-2.397a.16.16 0 0 0 .025-.16.176.176 0 0 0-.115-.114l-2.666-.918-1.726-2.277a.161.161 0 0 0-.14-.073.161.161 0 0 0-.14.073l-1.725 2.277z" fill="#876CD9" stroke="#E7E7E7" stroke-width=".05" mask="url(#e)"/></g><defs><linearGradient id="b" x1="16.5" y1="18" x2="5" y2="2" gradientUnits="userSpaceOnUse"><stop stop-color="#fff"/><stop offset="1" stop-color="#787878"/></linearGradient><linearGradient id="c" x1="3.5" y1="2" x2="20" y2="22.5" gradientUnits="userSpaceOnUse"><stop stop-color="#E7E7E7"/><stop offset="1" stop-color="#CDCDCD"/></linearGradient><filter id="a" x="-15" y="-14.5" width="54" height="54" filterUnits="userSpaceOnUse" color-interpolation-filters="sRGB"><feFlood flood-opacity="0" result="BackgroundImageFix"/><feGaussianBlur in="BackgroundImageFix" stdDeviation="7.5"/><feComposite in2="SourceAlpha" operator="in" result="effect1_backgroundBlur_572_2751"/><feBlend in="SourceGraphic" in2="effect1_backgroundBlur_572_2751" result="shape"/></filter></defs></svg>