<svg width="24" height="25" viewBox="0 0 24 25" fill="none" xmlns="http://www.w3.org/2000/svg">
<g filter="url(#filter0_b_572_2751)">
<circle cx="12" cy="12.5" r="12" fill="url(#paint0_linear_572_2751)" fill-opacity="0.3"/>
<circle cx="12" cy="12.5" r="11.5" stroke="url(#paint1_linear_572_2751)"/>
</g>
<mask id="mask0_572_2751" style="mask-type:alpha" maskUnits="userSpaceOnUse" x="5" y="5" width="14" height="15">
<rect x="5.5" y="6" width="13" height="13" fill="#D9D9D9" stroke="#E7E7E7"/>
</mask>
<g mask="url(#mask0_572_2751)">
<mask id="path-4-inside-1_572_2751" fill="white">
<path d="M9.53581 10.0771L11.113 8.00726C11.2177 7.86717 11.3421 7.76431 11.486 7.69868C11.63 7.63296 11.782 7.6001 11.9421 7.6001C12.1021 7.6001 12.2541 7.63296 12.3981 7.69868C12.5421 7.76431 12.6664 7.86717 12.7711 8.00726L14.3483 10.0771L16.7601 10.8914C16.9905 10.9655 17.1702 11.0961 17.2991 11.2833C17.4281 11.4705 17.4926 11.6773 17.4926 11.9036C17.4926 12.0082 17.4774 12.1123 17.4468 12.2162C17.4163 12.32 17.3661 12.4195 17.2963 12.5147L15.7258 14.6943L15.7842 17.0075C15.7939 17.3146 15.6926 17.5735 15.4804 17.7841C15.2683 17.9948 15.021 18.1001 14.7387 18.1001C14.7304 18.1001 14.6328 18.0874 14.4459 18.0619L11.9421 17.344L9.43824 18.0619C9.38963 18.0813 9.33947 18.0926 9.28774 18.0956C9.23602 18.0986 9.18858 18.1001 9.14541 18.1001C8.86045 18.1001 8.61254 17.9948 8.40166 17.7841C8.19079 17.5735 8.09021 17.3146 8.09993 17.0075L8.15827 14.6797L6.59668 12.5147C6.52688 12.4191 6.47671 12.3192 6.44618 12.215C6.41565 12.1107 6.40039 12.0064 6.40039 11.9022C6.40039 11.6822 6.46446 11.4776 6.5926 11.2884C6.72074 11.0992 6.89972 10.965 7.12956 10.8859L9.53581 10.0771ZM10.0766 10.8309L7.40999 11.7193C7.3539 11.738 7.31559 11.7763 7.29508 11.8344C7.27447 11.8923 7.28288 11.9456 7.32031 11.9942L9.03881 14.4196L8.97493 17.0255C8.97114 17.089 8.99355 17.1395 9.04216 17.1768C9.09077 17.2143 9.14502 17.2236 9.20491 17.205L11.9421 16.4364L14.6792 17.2196C14.7391 17.2382 14.7933 17.2288 14.842 17.1914C14.8906 17.1541 14.913 17.1036 14.9092 17.04L14.8453 14.4196L16.5638 12.0234C16.6012 11.9748 16.6096 11.9215 16.589 11.8635C16.5685 11.8055 16.5302 11.7671 16.4741 11.7485L13.8076 10.8309L12.0823 8.5537C12.0486 8.50499 12.0018 8.48064 11.9421 8.48064C11.8823 8.48064 11.8355 8.50499 11.8018 8.5537L10.0766 10.8309Z"/>
</mask>
<path d="M9.53581 10.0771L11.113 8.00726C11.2177 7.86717 11.3421 7.76431 11.486 7.69868C11.63 7.63296 11.782 7.6001 11.9421 7.6001C12.1021 7.6001 12.2541 7.63296 12.3981 7.69868C12.5421 7.76431 12.6664 7.86717 12.7711 8.00726L14.3483 10.0771L16.7601 10.8914C16.9905 10.9655 17.1702 11.0961 17.2991 11.2833C17.4281 11.4705 17.4926 11.6773 17.4926 11.9036C17.4926 12.0082 17.4774 12.1123 17.4468 12.2162C17.4163 12.32 17.3661 12.4195 17.2963 12.5147L15.7258 14.6943L15.7842 17.0075C15.7939 17.3146 15.6926 17.5735 15.4804 17.7841C15.2683 17.9948 15.021 18.1001 14.7387 18.1001C14.7304 18.1001 14.6328 18.0874 14.4459 18.0619L11.9421 17.344L9.43824 18.0619C9.38963 18.0813 9.33947 18.0926 9.28774 18.0956C9.23602 18.0986 9.18858 18.1001 9.14541 18.1001C8.86045 18.1001 8.61254 17.9948 8.40166 17.7841C8.19079 17.5735 8.09021 17.3146 8.09993 17.0075L8.15827 14.6797L6.59668 12.5147C6.52688 12.4191 6.47671 12.3192 6.44618 12.215C6.41565 12.1107 6.40039 12.0064 6.40039 11.9022C6.40039 11.6822 6.46446 11.4776 6.5926 11.2884C6.72074 11.0992 6.89972 10.965 7.12956 10.8859L9.53581 10.0771ZM10.0766 10.8309L7.40999 11.7193C7.3539 11.738 7.31559 11.7763 7.29508 11.8344C7.27447 11.8923 7.28288 11.9456 7.32031 11.9942L9.03881 14.4196L8.97493 17.0255C8.97114 17.089 8.99355 17.1395 9.04216 17.1768C9.09077 17.2143 9.14502 17.2236 9.20491 17.205L11.9421 16.4364L14.6792 17.2196C14.7391 17.2382 14.7933 17.2288 14.842 17.1914C14.8906 17.1541 14.913 17.1036 14.9092 17.04L14.8453 14.4196L16.5638 12.0234C16.6012 11.9748 16.6096 11.9215 16.589 11.8635C16.5685 11.8055 16.5302 11.7671 16.4741 11.7485L13.8076 10.8309L12.0823 8.5537C12.0486 8.50499 12.0018 8.48064 11.9421 8.48064C11.8823 8.48064 11.8355 8.50499 11.8018 8.5537L10.0766 10.8309Z" fill="#876CD9" stroke="#E7E7E7" stroke-width="0.05" mask="url(#path-4-inside-1_572_2751)"/>
</g>
<defs>
<filter id="filter0_b_572_2751" x="-15" y="-14.5" width="54" height="54" filterUnits="userSpaceOnUse" color-interpolation-filters="sRGB">
<feFlood flood-opacity="0" result="BackgroundImageFix"/>
<feGaussianBlur in="BackgroundImageFix" stdDeviation="7.5"/>
<feComposite in2="SourceAlpha" operator="in" result="effect1_backgroundBlur_572_2751"/>
<feBlend mode="normal" in="SourceGraphic" in2="effect1_backgroundBlur_572_2751" result="shape"/>
</filter>
<linearGradient id="paint0_linear_572_2751" x1="16.5" y1="18" x2="5" y2="2" gradientUnits="userSpaceOnUse">
<stop stop-color="white"/>
<stop offset="1" stop-color="#787878"/>
</linearGradient>
<linearGradient id="paint1_linear_572_2751" x1="3.5" y1="2" x2="20" y2="22.5" gradientUnits="userSpaceOnUse">
<stop stop-color="#E7E7E7"/>
<stop offset="1" stop-color="#CDCDCD"/>
</linearGradient>
</defs>
</svg>
