<svg width="24" height="25" viewBox="0 0 24 25" fill="none" xmlns="http://www.w3.org/2000/svg">
<g filter="url(#filter0_b_540_2530)">
<circle cx="12" cy="12.5" r="12" fill="url(#paint0_linear_540_2530)" fill-opacity="0.3"/>
<circle cx="12" cy="12.5" r="11.5" stroke="url(#paint1_linear_540_2530)"/>
</g>
<mask id="mask0_540_2530" style="mask-type:alpha" maskUnits="userSpaceOnUse" x="5" y="5" width="14" height="15">
<rect x="5.5" y="6" width="13" height="13" fill="#D9D9D9" stroke="#E7E7E7"/>
</mask>
<g mask="url(#mask0_540_2530)">
<path d="M10.0689 10.8203L7.40605 11.7074C7.40605 11.7074 7.40605 11.7074 7.40604 11.7074C7.34612 11.7274 7.30503 11.7687 7.28329 11.8302M10.0689 10.8203L8.96245 17.0247M10.0689 10.8203L11.7916 8.54636C11.8277 8.49439 11.8783 8.46814 11.9421 8.46814C12.0058 8.46814 12.0564 8.49439 12.0925 8.54636L13.8152 10.8203L16.4781 11.7366C16.4781 11.7366 16.4781 11.7366 16.4781 11.7366C16.538 11.7566 16.5791 11.7979 16.6008 11.8594M10.0689 10.8203L14.8579 14.4234M7.28329 11.8302C7.2833 11.8302 7.2833 11.8302 7.2833 11.8302L7.29508 11.8344L7.28329 11.8302ZM7.28329 11.8302C7.2613 11.892 7.27036 11.9497 7.31025 12.0016L9.02621 14.4234M9.02621 14.4234L8.96245 17.0247M9.02621 14.4234L9.02631 14.4193L9.03881 14.4196M9.02621 14.4234L9.02861 14.4268L9.03881 14.4196M8.96245 17.0247L8.97493 17.0255M8.96245 17.0247C8.96245 17.0248 8.96245 17.0249 8.96244 17.0249L8.96244 17.0251L8.97493 17.0255M8.97493 17.0255C8.97114 17.089 8.99355 17.1395 9.04216 17.1768L9.03881 14.4196M8.97493 17.0255L9.03881 14.4196M14.8579 14.4234L16.5737 12.031L16.5638 12.0234M14.8579 14.4234L14.8555 14.4268L14.8453 14.4196M14.8579 14.4234L14.8578 14.4193L14.8453 14.4196M16.5638 12.0234L16.574 12.0307L16.5738 12.0308C16.6138 11.9789 16.6228 11.9212 16.6008 11.8594M16.5638 12.0234L14.8453 14.4196M16.5638 12.0234L14.8453 14.4196M16.6008 11.8594C16.6008 11.8594 16.6008 11.8594 16.6008 11.8593L16.589 11.8635L16.6008 11.8594ZM9.53979 10.0889L9.54062 10.0914L9.54575 10.0847L11.1229 8.01484L11.123 8.01475C11.2266 7.87615 11.3493 7.77472 11.4912 7.71006L11.4912 7.71005C11.6336 7.64508 11.7838 7.6126 11.9421 7.6126C12.1003 7.6126 12.2505 7.64508 12.3929 7.71005L12.3929 7.71006C12.5348 7.77472 12.6575 7.87615 12.7611 8.01475L12.7612 8.01484L14.3384 10.0847L14.3363 10.0862L14.3443 10.0889L16.7561 10.9033L16.7563 10.9033C16.9842 10.9766 17.1616 11.1056 17.2888 11.2904C17.4164 11.4755 17.4801 11.6799 17.4801 11.9036C17.4801 12.0069 17.465 12.1099 17.4348 12.2126C17.4048 12.315 17.3553 12.4132 17.2862 12.5073L17.2862 12.5074L15.7157 14.687L15.7131 14.6851L15.7134 14.6946L15.7717 17.0078L15.7717 17.0079C15.7813 17.3117 15.6813 17.5671 15.4716 17.7752C15.2617 17.9837 15.0175 18.0876 14.7387 18.0876L14.7387 18.0876C14.7386 18.0876 14.7381 18.0876 14.7371 18.0875L14.7327 18.0871L14.7172 18.0853L14.6609 18.0782C14.6123 18.0718 14.5415 18.0623 14.4484 18.0496L11.9455 17.3319L11.9461 17.3298L11.9386 17.3319L9.4348 18.0499L9.43478 18.0498L9.4336 18.0503C9.38623 18.0692 9.33738 18.0802 9.28702 18.0831C9.23549 18.0861 9.18829 18.0876 9.14541 18.0876C8.86393 18.0876 8.61915 17.9837 8.4105 17.7752C8.20215 17.5672 8.10281 17.3117 8.11243 17.0079L8.11243 17.0078L8.17076 14.68L8.17396 14.6801L8.1684 14.6724L6.60682 12.5074L6.60678 12.5073C6.53775 12.4128 6.48826 12.3142 6.45818 12.2115C6.42797 12.1083 6.41289 12.0052 6.41289 11.9022C6.41289 11.6848 6.47615 11.4826 6.60295 11.2954C6.72946 11.1086 6.90614 10.976 7.13356 10.8977C7.13358 10.8977 7.13361 10.8977 7.13363 10.8977L9.53979 10.0889ZM9.03453 17.1867C9.08641 17.2267 9.14485 17.2367 9.20845 17.217C9.20851 17.2169 9.20857 17.2169 9.20863 17.2169L11.942 16.4494L14.6755 17.2315C14.6755 17.2315 14.6756 17.2315 14.6757 17.2315L9.03453 17.1867ZM14.8496 17.2013C14.9016 17.1614 14.9256 17.1069 14.9217 17.0395L14.9217 17.0397L14.9092 17.04L14.9217 17.0393L14.8496 17.2013Z" fill="#876CD9" stroke="#E7E7E7" stroke-width="0.025"/>
</g>
<defs>
<filter id="filter0_b_540_2530" x="-15" y="-14.5" width="54" height="54" filterUnits="userSpaceOnUse" color-interpolation-filters="sRGB">
<feFlood flood-opacity="0" result="BackgroundImageFix"/>
<feGaussianBlur in="BackgroundImageFix" stdDeviation="7.5"/>
<feComposite in2="SourceAlpha" operator="in" result="effect1_backgroundBlur_540_2530"/>
<feBlend mode="normal" in="SourceGraphic" in2="effect1_backgroundBlur_540_2530" result="shape"/>
</filter>
<linearGradient id="paint0_linear_540_2530" x1="16.5" y1="18" x2="5" y2="2" gradientUnits="userSpaceOnUse">
<stop stop-color="white"/>
<stop offset="1" stop-color="#787878"/>
</linearGradient>
<linearGradient id="paint1_linear_540_2530" x1="3.5" y1="2" x2="20" y2="22.5" gradientUnits="userSpaceOnUse">
<stop stop-color="#E7E7E7"/>
<stop offset="1" stop-color="#CDCDCD"/>
</linearGradient>
</defs>
</svg>
